<svg width="48" height="48" viewBox="0 0 48 48" fill="none" xmlns="http://www.w3.org/2000/svg">
<path fill-rule="evenodd" clip-rule="evenodd" d="M11.25 40H7.25C3.93629 40 1.25 42.6863 1.25 46C1.25 46.5523 1.69463 47 2.25087 47H16.2491C16.8019 47 17.25 46.5468 17.25 46C17.25 42.6863 14.5637 40 11.25 40Z" fill="#6085FF"/>
<path fill-rule="evenodd" clip-rule="evenodd" d="M41.25 40H37.25C33.9363 40 31.25 42.6863 31.25 46C31.25 46.5523 31.6946 47 32.2509 47H46.2491C46.8019 47 47.25 46.5468 47.25 46C47.25 42.6863 44.5637 40 41.25 40Z" fill="#6085FF"/>
<path fill-rule="evenodd" clip-rule="evenodd" d="M26.25 26H22.25C18.9363 26 16.25 28.6863 16.25 32C16.25 32.5523 16.6946 33 17.2509 33H31.2491C31.8019 33 32.25 32.5468 32.25 32C32.25 28.6863 29.5637 26 26.25 26Z" fill="#9DB3FD"/>
<path fill-rule="evenodd" clip-rule="evenodd" d="M41.25 13H37.25C33.9363 13 31.25 15.6863 31.25 19C31.25 19.5523 31.6946 20 32.2509 20H46.2491C46.8019 20 47.25 19.5468 47.25 19C47.25 15.6863 44.5637 13 41.25 13Z" fill="#BFCEFE"/>
<path fill-rule="evenodd" clip-rule="evenodd" d="M11.25 13H7.25C3.93629 13 1.25 15.6863 1.25 19C1.25 19.5523 1.69463 20 2.25087 20H16.2491C16.8019 20 17.25 19.5468 17.25 19C17.25 15.6863 14.5637 13 11.25 13Z" fill="#BFCEFE"/>
<path d="M9.25 38C12.0114 38 14.25 35.7614 14.25 33C14.25 30.2386 12.0114 28 9.25 28C6.48858 28 4.25 30.2386 4.25 33C4.25 35.7614 6.48858 38 9.25 38Z" fill="#7897FF"/>
<path d="M39.25 38C42.0114 38 44.25 35.7614 44.25 33C44.25 30.2386 42.0114 28 39.25 28C36.4886 28 34.25 30.2386 34.25 33C34.25 35.7614 36.4886 38 39.25 38Z" fill="#7897FF"/>
<path d="M24.25 24C27.0114 24 29.25 21.7614 29.25 19C29.25 16.2386 27.0114 14 24.25 14C21.4886 14 19.25 16.2386 19.25 19C19.25 21.7614 21.4886 24 24.25 24Z" fill="#BFCEFE"/>
<path d="M39.25 11C42.0114 11 44.25 8.76142 44.25 6C44.25 3.23858 42.0114 1 39.25 1C36.4886 1 34.25 3.23858 34.25 6C34.25 8.76142 36.4886 11 39.25 11Z" fill="#D8E1FE"/>
<path d="M9.25 11C12.0114 11 14.25 8.76142 14.25 6C14.25 3.23858 12.0114 1 9.25 1C6.48858 1 4.25 3.23858 4.25 6C4.25 8.76142 6.48858 11 9.25 11Z" fill="#D8E1FE"/>
</svg>
