<svg width="48" height="48" viewBox="0 0 48 48" fill="none" xmlns="http://www.w3.org/2000/svg">
<path d="M12.75 6C6.6749 6 1.75 10.9249 1.75 17C1.75 23.5627 10.0793 32.0309 12.242 34.119C12.5269 34.3941 12.9731 34.3941 13.258 34.119C15.4207 32.0309 23.75 23.5627 23.75 17C23.75 10.9249 18.8251 6 12.75 6Z" fill="#BFCEFE"/>
<path d="M36.75 6C30.6749 6 25.75 10.9249 25.75 17C25.75 23.5627 34.0793 32.0309 36.242 34.119C36.5269 34.3941 36.9731 34.3941 37.258 34.119C39.4207 32.0309 47.75 23.5627 47.75 17C47.75 10.9249 42.8251 6 36.75 6Z" fill="#BFCEFE"/>
<path d="M24.75 8C17.5703 8 11.75 13.8203 11.75 21C11.75 28.756 21.5938 38.7638 24.1496 41.2315C24.4863 41.5567 25.0137 41.5567 25.3504 41.2315C27.9063 38.7638 37.75 28.756 37.75 21C37.75 13.8203 31.9297 8 24.75 8Z" fill="#6085FF"/>
<path d="M24.75 26C27.5114 26 29.75 23.7614 29.75 21C29.75 18.2386 27.5114 16 24.75 16C21.9886 16 19.75 18.2386 19.75 21C19.75 23.7614 21.9886 26 24.75 26Z" fill="white"/>
</svg>
