<svg width="49" height="48" viewBox="0 0 49 48" fill="none" xmlns="http://www.w3.org/2000/svg">
<path d="M3.25011 43.9998C3.02262 44.0028 2.8009 43.9282 2.62155 43.7882C2.4422 43.6482 2.31595 43.4513 2.26362 43.2299C2.2113 43.0084 2.23604 42.7758 2.33376 42.5704C2.43148 42.3649 2.59633 42.1989 2.80111 42.0998L10.8011 38.0998C11.0385 37.9811 11.3133 37.9616 11.565 38.0455C11.8168 38.1294 12.0249 38.3099 12.1436 38.5473C12.2623 38.7847 12.2818 39.0594 12.1979 39.3112C12.114 39.563 11.9335 39.7711 11.6961 39.8898L3.69611 43.8898C3.55792 43.9604 3.40527 43.998 3.25011 43.9998Z" fill="#9DB3FD"/>
<path d="M45.2502 44.0002C45.0955 44.0016 44.9426 43.9674 44.8032 43.9002L36.8032 39.9002C36.5659 39.7808 36.3856 39.5721 36.3022 39.3198C36.2187 39.0676 36.2389 38.7925 36.3582 38.5552C36.4776 38.3178 36.6863 38.1376 36.9386 38.0541C37.1908 37.9707 37.4659 37.9908 37.7032 38.1102L45.7032 42.1102C45.9027 42.2124 46.0621 42.3787 46.1558 42.5824C46.2495 42.786 46.272 43.0153 46.2197 43.2333C46.1675 43.4513 46.0435 43.6454 45.8677 43.7845C45.6919 43.9236 45.4744 43.9995 45.2502 44.0002Z" fill="#9DB3FD"/>
<path d="M24.25 12C23.9848 12 23.7304 11.8946 23.5429 11.7071C23.3554 11.5196 23.25 11.2652 23.25 11V3C23.25 2.73478 23.3554 2.48043 23.5429 2.29289C23.7304 2.10536 23.9848 2 24.25 2C24.5152 2 24.7696 2.10536 24.9571 2.29289C25.1446 2.48043 25.25 2.73478 25.25 3V11C25.25 11.2652 25.1446 11.5196 24.9571 11.7071C24.7696 11.8946 24.5152 12 24.25 12Z" fill="#9DB3FD"/>
<path d="M10.25 16V39C10.25 42.364 16.399 45 24.25 45C32.101 45 38.25 42.364 38.25 39V16H10.25Z" fill="#6085FF"/>
<path d="M24.25 22C16.399 22 10.25 19.364 10.25 16C10.25 12.636 16.399 10 24.25 10C32.101 10 38.25 12.636 38.25 16C38.25 19.364 32.1 22 24.25 22Z" fill="#BFDBFE"/>
</svg>
