<svg width="49" height="48" viewBox="0 0 49 48" fill="none" xmlns="http://www.w3.org/2000/svg">
<path d="M45.5 4.99999C45.5028 4.25123 45.2954 3.51671 44.9013 2.88001C44.5073 2.24331 43.9424 1.72999 43.2711 1.39847C42.5997 1.06694 41.8487 0.930509 41.1037 1.0047C40.3586 1.0789 39.6493 1.36074 39.0565 1.81815C38.4636 2.27557 38.0111 2.89019 37.7504 3.59209C37.4896 4.294 37.4311 5.055 37.5815 5.7885C37.732 6.52201 38.0852 7.19858 38.6012 7.74122C39.1171 8.28386 39.775 8.6708 40.5 8.85799V13.586L36.793 17.293C36.6975 17.3852 36.6213 17.4956 36.5689 17.6176C36.5165 17.7396 36.4889 17.8708 36.4877 18.0036C36.4866 18.1364 36.5119 18.2681 36.5622 18.3909C36.6124 18.5138 36.6867 18.6255 36.7806 18.7194C36.8745 18.8133 36.9861 18.8875 37.109 18.9378C37.2319 18.9881 37.3636 19.0134 37.4964 19.0122C37.6292 19.0111 37.7604 18.9835 37.8824 18.9311C38.0044 18.8787 38.1147 18.8025 38.207 18.707L42.207 14.707C42.3945 14.5195 42.4999 14.2652 42.5 14V8.85799C43.3561 8.63695 44.1149 8.13845 44.6577 7.44043C45.2005 6.74241 45.4967 5.88421 45.5 4.99999Z" fill="#D8E1FE"/>
<path d="M12.207 17.293L8.49999 13.586V8.858C9.44265 8.61461 10.2642 8.03577 10.8106 7.22999C11.357 6.42421 11.5908 5.44681 11.4681 4.481C11.3454 3.51518 10.8747 2.62727 10.1442 1.98368C9.41372 1.34009 8.47357 0.985016 7.49999 0.985016C6.52642 0.985016 5.58627 1.34009 4.85576 1.98368C4.12526 2.62727 3.65455 3.51518 3.53188 4.481C3.4092 5.44681 3.64298 6.42421 4.18939 7.22999C4.7358 8.03577 5.55734 8.61461 6.49999 8.858V14C6.50005 14.2652 6.60545 14.5195 6.79299 14.707L10.793 18.707C10.9816 18.8892 11.2342 18.99 11.4964 18.9877C11.7586 18.9854 12.0094 18.8802 12.1948 18.6948C12.3802 18.5094 12.4854 18.2586 12.4877 17.9964C12.4899 17.7342 12.3892 17.4816 12.207 17.293Z" fill="#D8E1FE"/>
<path d="M27.5 1H21.5C21.2348 1 20.9804 1.10536 20.7929 1.29289C20.6054 1.48043 20.5 1.73478 20.5 2V8C20.5 8.26522 20.6054 8.51957 20.7929 8.70711C20.9804 8.89464 21.2348 9 21.5 9H23.5V11C23.5 11.2652 23.6054 11.5196 23.7929 11.7071C23.9804 11.8946 24.2348 12 24.5 12C24.7652 12 25.0196 11.8946 25.2071 11.7071C25.3946 11.5196 25.5 11.2652 25.5 11V9H27.5C27.7652 9 28.0196 8.89464 28.2071 8.70711C28.3946 8.51957 28.5 8.26522 28.5 8V2C28.5 1.73478 28.3946 1.48043 28.2071 1.29289C28.0196 1.10536 27.7652 1 27.5 1Z" fill="#9DB3FD"/>
<path d="M44.5 39H42.5V34C42.4999 33.7348 42.3945 33.4805 42.207 33.293L38.207 29.293C38.0184 29.1108 37.7658 29.01 37.5036 29.0123C37.2414 29.0146 36.9906 29.1198 36.8052 29.3052C36.6198 29.4906 36.5146 29.7414 36.5123 30.0036C36.51 30.2658 36.6108 30.5184 36.793 30.707L40.5 34.414V39H38.5C38.2348 39 37.9804 39.1054 37.7929 39.2929C37.6054 39.4804 37.5 39.7348 37.5 40V46C37.5 46.2652 37.6054 46.5196 37.7929 46.7071C37.9804 46.8946 38.2348 47 38.5 47H44.5C44.7652 47 45.0196 46.8946 45.2071 46.7071C45.3946 46.5196 45.5 46.2652 45.5 46V40C45.5 39.7348 45.3946 39.4804 45.2071 39.2929C45.0196 39.1054 44.7652 39 44.5 39Z" fill="#9DB3FD"/>
<path d="M12.207 30.707C12.3892 30.5184 12.49 30.2658 12.4877 30.0036C12.4854 29.7414 12.3802 29.4906 12.1948 29.3052C12.0094 29.1198 11.7586 29.0146 11.4964 29.0123C11.2342 29.01 10.9816 29.1108 10.793 29.293L6.793 33.293C6.60545 33.4805 6.50006 33.7348 6.5 34V39H4.5C4.23478 39 3.98043 39.1054 3.79289 39.2929C3.60536 39.4804 3.5 39.7348 3.5 40V46C3.5 46.2652 3.60536 46.5196 3.79289 46.7071C3.98043 46.8946 4.23478 47 4.5 47H10.5C10.7652 47 11.0196 46.8946 11.2071 46.7071C11.3946 46.5196 11.5 46.2652 11.5 46V40C11.5 39.7348 11.3946 39.4804 11.2071 39.2929C11.0196 39.1054 10.7652 39 10.5 39H8.5V34.414L12.207 30.707Z" fill="#9DB3FD"/>
<path d="M25.5 39.142V37C25.5 36.7348 25.3946 36.4804 25.2071 36.2929C25.0196 36.1054 24.7652 36 24.5 36C24.2348 36 23.9804 36.1054 23.7929 36.2929C23.6054 36.4804 23.5 36.7348 23.5 37V39.142C22.5573 39.3854 21.7358 39.9642 21.1894 40.77C20.643 41.5758 20.4092 42.5532 20.5319 43.519C20.6546 44.4848 21.1253 45.3727 21.8558 46.0163C22.5863 46.6599 23.5264 47.015 24.5 47.015C25.4736 47.015 26.4137 46.6599 27.1442 46.0163C27.8747 45.3727 28.3454 44.4848 28.4681 43.519C28.5908 42.5532 28.357 41.5758 27.8106 40.77C27.2642 39.9642 26.4427 39.3854 25.5 39.142Z" fill="#D8E1FE"/>
<path d="M24.5 12C17.8732 12 12.5 17.3732 12.5 24C12.5 30.6268 17.8732 36 24.5 36C31.1268 36 36.5 30.6268 36.5 24C36.5 17.3732 31.1268 12 24.5 12ZM29.683 20.0813L24.042 27.9027C23.9631 28.0127 23.8592 28.1024 23.7388 28.1642C23.6184 28.2261 23.4849 28.2584 23.3496 28.2584C23.2142 28.2584 23.0808 28.2261 22.9603 28.1642C22.8399 28.1024 22.736 28.0127 22.6571 27.9027L19.317 23.2741C19.2152 23.1321 19.317 22.9339 19.4911 22.9339H20.7473C21.0205 22.9339 21.2804 23.0652 21.4411 23.2902L23.3482 25.9366L27.5589 20.0973C27.7196 19.875 27.9768 19.7411 28.2527 19.7411H29.5089C29.683 19.7411 29.7848 19.9393 29.683 20.0813Z" fill="#6085FF"/>
</svg>
