<svg width="49" height="48" viewBox="0 0 49 48" fill="none" xmlns="http://www.w3.org/2000/svg">
<path d="M24.7498 40.9998C24.4846 40.9997 24.2303 40.8943 24.0428 40.7068L8.04279 24.7068C7.85532 24.5193 7.75 24.2649 7.75 23.9998C7.75 23.7346 7.85532 23.4803 8.04279 23.2928L24.0428 7.29279C24.2303 7.10532 24.4846 7 24.7498 7C25.0149 7 25.2693 7.10532 25.4568 7.29279L41.4568 23.2928C41.6443 23.4803 41.7496 23.7346 41.7496 23.9998C41.7496 24.2649 41.6443 24.5193 41.4568 24.7068L25.4568 40.7068C25.2693 40.8943 25.015 40.9997 24.7498 40.9998ZM10.1638 23.9998L24.7498 38.5858L39.3358 23.9998L24.7498 9.41379L10.1638 23.9998Z" fill="#BFCEFE"/>
<path d="M8.75 13C9.73891 13 10.7056 12.7068 11.5279 12.1573C12.3501 11.6079 12.991 10.827 13.3694 9.91342C13.7478 8.99979 13.8469 7.99446 13.6539 7.02455C13.461 6.05465 12.9848 5.16373 12.2855 4.46447C11.5863 3.76521 10.6954 3.289 9.72545 3.09608C8.75555 2.90315 7.75021 3.00217 6.83658 3.3806C5.92295 3.75904 5.14206 4.39991 4.59265 5.22215C4.04324 6.0444 3.75 7.0111 3.75 8C3.75159 9.3256 4.27888 10.5964 5.21622 11.5338C6.15356 12.4711 7.42441 12.9984 8.75 13Z" fill="#6085FF"/>
<path d="M40.75 13C41.7389 13 42.7056 12.7068 43.5279 12.1573C44.3501 11.6079 44.991 10.827 45.3694 9.91342C45.7478 8.99979 45.8469 7.99446 45.6539 7.02455C45.461 6.05465 44.9848 5.16373 44.2855 4.46447C43.5863 3.76521 42.6954 3.289 41.7255 3.09608C40.7555 2.90315 39.7502 3.00217 38.8366 3.3806C37.923 3.75904 37.1421 4.39991 36.5927 5.22215C36.0432 6.0444 35.75 7.0111 35.75 8C35.7516 9.3256 36.2789 10.5964 37.2162 11.5338C38.1536 12.4711 39.4244 12.9984 40.75 13Z" fill="#6085FF"/>
<path d="M24.75 19C23.7611 19 22.7944 19.2932 21.9722 19.8427C21.1499 20.3921 20.509 21.173 20.1306 22.0866C19.7522 23.0002 19.6531 24.0055 19.8461 24.9755C20.039 25.9454 20.5152 26.8363 21.2145 27.5355C21.9137 28.2348 22.8046 28.711 23.7746 28.9039C24.7445 29.0969 25.7498 28.9978 26.6634 28.6194C27.5771 28.241 28.3579 27.6001 28.9074 26.7779C29.4568 25.9556 29.75 24.9889 29.75 24C29.7484 22.6744 29.2211 21.4036 28.2838 20.4662C27.3464 19.5289 26.0756 19.0016 24.75 19Z" fill="#6085FF"/>
<path d="M8.75 35C7.7611 35 6.7944 35.2932 5.97215 35.8427C5.14991 36.3921 4.50904 37.173 4.1306 38.0866C3.75217 39.0002 3.65315 40.0055 3.84608 40.9755C4.039 41.9454 4.51521 42.8363 5.21447 43.5355C5.91373 44.2348 6.80465 44.711 7.77455 44.9039C8.74446 45.0969 9.74979 44.9978 10.6634 44.6194C11.577 44.241 12.3579 43.6001 12.9073 42.7779C13.4568 41.9556 13.75 40.9889 13.75 40C13.7484 38.6744 13.2211 37.4036 12.2838 36.4662C11.3464 35.5289 10.0756 35.0016 8.75 35Z" fill="#6085FF"/>
<path d="M40.75 35C39.7611 35 38.7944 35.2932 37.9722 35.8427C37.1499 36.3921 36.509 37.173 36.1306 38.0866C35.7522 39.0002 35.6531 40.0055 35.8461 40.9755C36.039 41.9454 36.5152 42.8363 37.2145 43.5355C37.9137 44.2348 38.8046 44.711 39.7745 44.9039C40.7445 45.0969 41.7498 44.9978 42.6634 44.6194C43.5771 44.241 44.3579 43.6001 44.9074 42.7779C45.4568 41.9556 45.75 40.9889 45.75 40C45.7484 38.6744 45.2211 37.4036 44.2838 36.4662C43.3464 35.5289 42.0756 35.0016 40.75 35Z" fill="#6085FF"/>
<path d="M43.75 19H37.75C36.6454 19 35.75 19.8954 35.75 21V27C35.75 28.1046 36.6454 29 37.75 29H43.75C44.8546 29 45.75 28.1046 45.75 27V21C45.75 19.8954 44.8546 19 43.75 19Z" fill="#BFCEFE"/>
<path d="M11.75 19H5.75C4.64543 19 3.75 19.8954 3.75 21V27C3.75 28.1046 4.64543 29 5.75 29H11.75C12.8546 29 13.75 28.1046 13.75 27V21C13.75 19.8954 12.8546 19 11.75 19Z" fill="#BFCEFE"/>
<path d="M27.75 3H21.75C20.6454 3 19.75 3.89543 19.75 5V11C19.75 12.1046 20.6454 13 21.75 13H27.75C28.8546 13 29.75 12.1046 29.75 11V5C29.75 3.89543 28.8546 3 27.75 3Z" fill="#BFCEFE"/>
<path d="M27.75 35H21.75C20.6454 35 19.75 35.8954 19.75 37V43C19.75 44.1046 20.6454 45 21.75 45H27.75C28.8546 45 29.75 44.1046 29.75 43V37C29.75 35.8954 28.8546 35 27.75 35Z" fill="#BFCEFE"/>
</svg>
