<svg width="33" height="32" viewBox="0 0 33 32" fill="none" xmlns="http://www.w3.org/2000/svg">
	<path d="M27.1668 26.0001H5.50002C4.11928 26.0001 3 24.8808 3 23.5001V8.50002C3 7.11928 4.11928 6 5.50002 6H27.1668C28.5476 6 29.6668 7.11928 29.6668 8.50002V23.5001C29.6668 24.8808 28.5476 26.0001 27.1668 26.0001ZM8.83337 8.91668C7.22253 8.91668 5.91668 10.2225 5.91668 11.8334C5.91668 13.4442 7.22253 14.7501 8.83337 14.7501C10.4442 14.7501 11.7501 13.4442 11.7501 11.8334C11.7501 10.2225 10.4442 8.91668 8.83337 8.91668ZM6.33335 22.6668H26.3335V16.8334L21.7754 12.2753C21.5313 12.0312 21.1356 12.0312 20.8915 12.2753L13.8334 19.3334L10.942 16.442C10.6979 16.1979 10.3022 16.1979 10.0581 16.442L6.33335 20.1668V22.6668Z" fill="#9CA3AF" />
</svg>