<svg width="49" height="48" viewBox="0 0 49 48" fill="none" xmlns="http://www.w3.org/2000/svg">
<path d="M21.722 12.636L35.864 26.778C36.0515 26.9655 36.3058 27.0708 36.571 27.0708C36.8362 27.0708 37.0905 26.9655 37.278 26.778L41.278 22.778C43.2149 20.8362 44.3573 18.2414 44.4816 15.5016C44.6059 12.7618 43.7031 10.0742 41.95 7.965L47.207 2.707C47.3025 2.61476 47.3787 2.50441 47.4311 2.38241C47.4835 2.26041 47.5111 2.12919 47.5122 1.99641C47.5134 1.86363 47.4881 1.73195 47.4378 1.60905C47.3875 1.48615 47.3133 1.3745 47.2194 1.28061C47.1255 1.18672 47.0138 1.11246 46.891 1.06218C46.7681 1.0119 46.6364 0.986601 46.5036 0.987754C46.3708 0.988908 46.2396 1.01649 46.1176 1.0689C45.9956 1.12131 45.8852 1.19749 45.793 1.293L40.535 6.55C38.4268 4.79474 35.7387 3.89057 32.9982 4.0149C30.2578 4.13922 27.6627 5.28306 25.722 7.222L21.722 11.222C21.5345 11.4095 21.4292 11.6638 21.4292 11.929C21.4292 12.1942 21.5345 12.4485 21.722 12.636Z" fill="#6085FF"/>
<path d="M25.4291 7.51502L24.0148 8.92923L39.5712 24.4856L40.9854 23.0714L25.4291 7.51502Z" fill="#D8E1FE"/>
<path d="M41.951 7.963L47.207 2.707C47.3025 2.61476 47.3787 2.50441 47.4311 2.38241C47.4835 2.26041 47.5111 2.12919 47.5122 1.99641C47.5134 1.86363 47.4881 1.73195 47.4378 1.60905C47.3875 1.48615 47.3133 1.3745 47.2194 1.28061C47.1255 1.18672 47.0138 1.11246 46.8909 1.06218C46.7681 1.0119 46.6364 0.986601 46.5036 0.987754C46.3708 0.988908 46.2396 1.01649 46.1176 1.0689C45.9956 1.12131 45.8852 1.19749 45.793 1.293L40.537 6.549C41.0503 6.97636 41.5236 7.44965 41.951 7.963Z" fill="#9DB3FD"/>
<path d="M27.278 35.364L13.136 21.222C12.9485 21.0345 12.6942 20.9292 12.429 20.9292C12.1638 20.9292 11.9095 21.0345 11.722 21.222L7.722 25.222C5.78512 27.1638 4.64271 29.7586 4.51842 32.4984C4.39412 35.2382 5.29689 37.9258 7.05 40.035L1.793 45.293C1.69749 45.3853 1.6213 45.4956 1.5689 45.6176C1.51649 45.7396 1.4889 45.8708 1.48775 46.0036C1.48659 46.1364 1.51189 46.2681 1.56218 46.391C1.61246 46.5139 1.68671 46.6255 1.7806 46.7194C1.87449 46.8133 1.98615 46.8875 2.10904 46.9378C2.23194 46.9881 2.36362 47.0134 2.4964 47.0123C2.62918 47.0111 2.7604 46.9835 2.8824 46.9311C3.00441 46.8787 3.11475 46.8025 3.207 46.707L8.465 41.45C10.5732 43.2053 13.2613 44.1094 16.0017 43.9851C18.7422 43.8608 21.3373 42.717 23.278 40.778L27.278 36.778C27.4655 36.5905 27.5708 36.3362 27.5708 36.071C27.5708 35.8058 27.4655 35.5515 27.278 35.364Z" fill="#D8E1FE"/>
<path d="M9.42905 23.5144L8.01484 24.9286L23.5712 40.485L24.9854 39.0708L9.42905 23.5144Z" fill="#9DB3FD"/>
<path d="M7.049 40.037L1.793 45.293C1.69749 45.3853 1.6213 45.4956 1.5689 45.6176C1.51649 45.7396 1.4889 45.8708 1.48775 46.0036C1.48659 46.1364 1.51189 46.2681 1.56218 46.391C1.61246 46.5139 1.68671 46.6255 1.7806 46.7194C1.87449 46.8133 1.98615 46.8875 2.10904 46.9378C2.23194 46.9881 2.36362 47.0134 2.4964 47.0123C2.62918 47.0111 2.7604 46.9835 2.8824 46.9311C3.00441 46.8787 3.11475 46.8025 3.207 46.707L8.463 41.451C7.94964 41.0237 7.47635 40.5504 7.049 40.037Z" fill="#9DB3FD"/>
<path d="M16.146 24.232L18.232 26.318L20.989 23.561C21.2704 23.2797 21.4285 22.8982 21.4286 22.5004C21.4287 22.1025 21.2708 21.7209 20.9895 21.4395C20.7082 21.1581 20.3267 21 19.9288 20.9999C19.531 20.9998 19.1494 21.1577 18.868 21.439L16.136 24.172L16.146 24.232Z" fill="#9DB3FD"/>
<path d="M26.989 29.561C27.2704 29.2797 27.4285 28.8982 27.4286 28.5004C27.4287 28.1025 27.2708 27.7209 26.9895 27.4395C26.7082 27.1581 26.3267 27 25.9289 26.9999C25.531 26.9998 25.1494 27.1577 24.868 27.439L22.111 30.2L24.232 32.321L26.989 29.561Z" fill="#9DB3FD"/>
</svg>
