<?xml version="1.0" encoding="UTF-8"?>
<svg width="1366px" height="697px" viewBox="0 0 1366 697" version="1.1" xmlns="http://www.w3.org/2000/svg" xmlns:xlink="http://www.w3.org/1999/xlink">
    <!-- Generator: Sketch 64 (93537) - https://sketch.com -->
    <title>2831306</title>
    <desc>Created with Sketch.</desc>
    <defs>
        <linearGradient x1="50%" y1="0%" x2="50%" y2="100%" id="linearGradient-1">
            <stop stop-color="#659C48" offset="0%"></stop>
            <stop stop-color="#5CC982" offset="100%"></stop>
        </linearGradient>
        <linearGradient x1="50%" y1="0%" x2="50%" y2="99.999908%" id="linearGradient-2">
            <stop stop-color="#84BB67" offset="0%"></stop>
            <stop stop-color="#5CC982" offset="100%"></stop>
        </linearGradient>
    </defs>
    <g id="Page-1" stroke="none" stroke-width="1" fill="none" fill-rule="evenodd">
        <g id="01-1-login">
            <g id="2831306">
                <rect id="Rectangle" fill="url(#linearGradient-1)" fill-rule="nonzero" x="0" y="0" width="1366" height="697"></rect>
                <path d="M0,0 L0,450.143339 C103.97992,480.05079 213.42384,502.829463 341.5,488.711141 C543.668,466.43371 715.784,426.055866 907.024,394.032059 C1055.235,367.438376 1230.57476,356.285737 1366,397.23444 L1366,0 L0,0 Z" id="Path" fill="url(#linearGradient-2)" fill-rule="nonzero"></path>
                <polygon id="Path" fill="#FFFFFF" opacity="0.5" points="1199.01355 498 1199.93496 504.389892 1204.84011 502.575812 1201.23577 505.039711 1214 505.5 1201.23577 505.960289 1204.84011 508.424188 1199.93496 506.610108 1199.01355 513 1198.06504 506.610108 1193.15989 508.424188 1196.76423 505.960289 1184 505.5 1196.76423 505.039711 1193.15989 502.575812 1198.06504 504.389892"></polygon>
                <polygon id="Path" fill="#FFFFFF" opacity="0.5" points="190.01355 338 190.934959 344.389892 195.840108 342.575812 192.235772 345.039711 205 345.5 192.235772 345.960289 195.840108 348.424188 190.934959 346.610108 190.01355 353 189.092141 346.610108 184.159892 348.424188 187.764228 345.960289 175 345.5 187.764228 345.039711 184.159892 342.575812 189.092141 344.389892"></polygon>
                <polygon id="Path" fill="#FFFFFF" opacity="0.5" points="1314.98645 163 1315.90786 169.389892 1320.84011 167.575812 1317.23577 170.039711 1330 170.5 1317.23577 170.960289 1320.84011 173.424188 1315.90786 171.610108 1314.98645 178 1314.06504 171.610108 1309.15989 173.424188 1312.76423 170.960289 1300 170.5 1312.76423 170.039711 1309.15989 167.575812 1314.06504 169.389892"></polygon>
                <polygon id="Path" fill="#FFFFFF" opacity="0.5" points="73.0135501 39 73.9349593 45.3898917 78.8401084 43.5758123 75.2357724 46.0397112 88 46.5 75.2357724 46.9602888 78.8401084 49.4241877 73.9349593 47.6101083 73.0135501 54 72.0650407 47.6101083 67.1598916 49.4241877 70.7642276 46.9602888 58 46.5 70.7642276 46.0397112 67.1598916 43.5758123 72.0650407 45.3898917"></polygon>
                <polygon id="Path" fill="#FFFFFF" opacity="0.5" points="67 648 67.9205776 654.389892 72.8483755 652.58935 69.2202166 655.039711 82 655.5 69.2202166 655.960289 72.8483755 658.424188 67.9205776 656.623646 67 663 66.0794224 656.623646 61.1516245 658.424188 64.7797834 655.960289 52 655.5 64.7797834 655.039711 61.1516245 652.58935 66.0794224 654.389892"></polygon>
            </g>
        </g>
    </g>
</svg>