<svg width="320" height="96" viewBox="0 0 320 96" fill="none" xmlns="http://www.w3.org/2000/svg">
<g clip-path="url(#clip0_13358_5956)">
<g filter="url(#filter0_ii_13358_5956)">
<path d="M136 15C136 6.71573 142.716 0 151 0H169C177.284 0 184 6.71573 184 15V33C184 41.2843 177.284 48 169 48H151C142.716 48 136 41.2843 136 33V15Z" fill="url(#paint0_linear_13358_5956)"/>
</g>
<path d="M148.955 37.0742C148.955 37.6548 149.207 39 151.587 39C153.968 39 154.22 37.6548 154.22 37.0742V18.1548C154.22 15.2806 156.474 13.771 159.823 13.771C163.171 13.771 165.474 15.6484 165.474 18.1548V22.3161C165.474 24.1645 164.294 25.6258 160.945 25.6258H158.342C157.916 25.6258 156.542 25.8 156.542 28.0452C156.542 30.2903 157.926 30.4645 158.342 30.4645H160.945C163.394 30.4645 165.871 30.029 167.845 28.7903C169.771 27.5516 170.739 25.5968 170.739 22.9742V17.4968C170.72 12.8613 167.303 9 159.842 9C148.955 9 148.955 15.7065 148.955 20.7194V37.0742Z" fill="white"/>
</g>
<path d="M236.847 90.94C236.467 90.29 235.817 89.92 235.067 89.92H228.877C228.257 89.92 227.837 89.8 227.677 89.59C227.587 89.46 227.287 88.92 227.287 87.33V66.95C227.287 66.17 226.887 65.5 226.197 65.11C225.727 64.84 225.117 64.71 224.357 64.71C223.597 64.71 222.997 64.84 222.517 65.11C221.827 65.5 221.427 66.17 221.427 66.95V87.34C221.427 90.02 221.987 91.96 223.157 93.29C224.347 94.61 226.267 95.28 228.867 95.28H235.057C235.817 95.28 236.457 94.91 236.837 94.26C237.087 93.83 237.217 93.28 237.217 92.6C237.217 91.92 237.097 91.37 236.837 90.93L236.847 90.94Z" fill="#6085FF"/>
<path d="M210.907 66.1599C209.207 64.9999 206.826 64.4399 203.627 64.4399C201.747 64.4399 200.077 64.6499 198.667 65.0499C197.117 65.4699 195.816 66.2399 194.797 67.3499C193.716 68.4999 193.167 69.9699 193.167 71.7099V93.3299C193.167 94.1099 193.566 94.7799 194.257 95.1699C194.727 95.4399 195.327 95.5599 196.097 95.5599C196.867 95.5599 197.456 95.4299 197.937 95.1699C198.627 94.7799 199.027 94.1099 199.027 93.3299V73.3099C199.027 71.3299 200.176 69.7999 203.407 69.7999C206.637 69.7999 207.826 71.2699 207.826 73.3099V93.3299C207.826 94.1099 208.227 94.7799 208.917 95.1699C209.387 95.4399 209.987 95.5699 210.757 95.5699C211.527 95.5699 212.117 95.4399 212.596 95.1799C213.286 94.7899 213.687 94.1199 213.687 93.3399V71.7099C213.687 69.3099 212.736 67.3899 210.926 66.1599H210.907Z" fill="#6085FF"/>
<path d="M203.417 84.4599C204.985 84.4599 206.257 83.1884 206.257 81.6199C206.257 80.0515 204.985 78.7799 203.417 78.7799C201.848 78.7799 200.576 80.0515 200.576 81.6199C200.576 83.1884 201.848 84.4599 203.417 84.4599Z" fill="#6085FF"/>
<path d="M181.797 75.68C182.267 75.95 182.867 76.07 183.637 76.07C184.407 76.07 184.997 75.94 185.477 75.68C186.167 75.29 186.567 74.62 186.567 73.84V71.52C186.567 69.09 185.647 67.22 183.847 65.97C182.167 64.81 179.817 64.25 176.647 64.25C173.757 64.25 171.367 64.79 169.557 65.86C167.527 67.02 166.457 68.98 166.457 71.52V88.48C166.457 91.02 167.527 92.99 169.557 94.18C171.367 95.22 173.757 95.75 176.647 95.75C179.807 95.75 182.167 95.19 183.847 94.03C185.657 92.78 186.567 90.91 186.567 88.48V86.17C186.567 85.39 186.167 84.72 185.477 84.33C185.007 84.06 184.407 83.94 183.637 83.94C182.867 83.94 182.277 84.07 181.797 84.34C181.107 84.73 180.707 85.4 180.707 86.18V88.87C180.707 89.09 180.667 89.27 180.567 89.41C180.467 89.57 180.287 89.71 180.037 89.84C179.537 90.1 178.507 90.41 176.477 90.41C174.447 90.41 173.437 90.1 172.947 89.84C172.697 89.71 172.527 89.57 172.427 89.41C172.337 89.27 172.287 89.09 172.287 88.87V71.15C172.287 70.93 172.327 70.75 172.417 70.61C172.517 70.45 172.697 70.31 172.937 70.18C173.437 69.92 174.447 69.61 176.467 69.61C178.487 69.61 179.527 69.92 180.037 70.18C180.287 70.31 180.467 70.45 180.557 70.61C180.647 70.75 180.697 70.93 180.697 71.15V73.84C180.697 74.62 181.097 75.29 181.787 75.68H181.797Z" fill="#6085FF"/>
<path d="M158.917 81.53C158.687 81.17 158.467 80.87 158.287 80.65C157.987 80.2 157.517 79.82 156.837 79.49L155.667 78.92C155.447 78.8 155.187 78.71 154.987 78.64C154.737 78.56 154.427 78.47 154.057 78.38C153.337 78.19 152.357 77.97 151.117 77.7L147.717 76.95C146.597 76.71 146.227 76.41 146.147 76.33C146.097 76.26 145.827 75.82 145.827 74.34V71.17C145.827 70.69 145.987 70.42 146.417 70.18C146.867 69.93 147.787 69.63 149.627 69.63C151.467 69.63 152.417 69.93 152.867 70.18C153.307 70.42 153.467 70.69 153.467 71.17V73.19C153.467 73.97 153.867 74.64 154.557 75.03C155.027 75.3 155.627 75.43 156.397 75.43C157.167 75.43 157.757 75.3 158.237 75.03C158.927 74.64 159.327 73.97 159.327 73.19V71.55C159.327 69.03 158.317 67.07 156.427 65.91C154.707 64.83 152.437 64.28 149.677 64.28C146.917 64.28 144.647 64.83 142.897 65.91C140.987 67.08 139.987 69.03 139.987 71.56V74.44C139.987 77.71 141.087 79.94 143.247 81.06C144.157 81.55 145.417 81.97 147.117 82.35L150.517 83.1C152.367 83.53 153.207 83.86 153.577 84.07C153.747 84.16 153.867 84.27 153.867 84.67V88.89C153.867 89.15 153.787 89.28 153.727 89.36C153.597 89.53 153.357 89.69 153.017 89.83C152.107 90.22 150.917 90.42 149.487 90.42C148.057 90.42 146.917 90.23 146.047 89.87C145.767 89.74 145.557 89.59 145.447 89.43C145.347 89.29 145.297 89.11 145.297 88.88V86.86C145.297 86.08 144.897 85.41 144.207 85.02C143.737 84.75 143.127 84.63 142.367 84.63C141.607 84.63 141.007 84.76 140.527 85.03C139.837 85.42 139.437 86.09 139.437 86.87V88.51C139.437 91.02 140.507 92.98 142.537 94.17C144.377 95.24 146.717 95.78 149.477 95.78C152.237 95.78 154.617 95.24 156.477 94.18C158.587 92.99 159.697 91.03 159.697 88.51V84.96C159.697 83.48 159.437 82.37 158.897 81.56L158.917 81.53Z" fill="#6085FF"/>
<path d="M130.147 66.1599C128.447 64.9999 126.067 64.4399 122.867 64.4399C120.987 64.4399 119.317 64.6499 117.907 65.0499C116.357 65.4699 115.057 66.2399 114.037 67.3499C112.957 68.4999 112.407 69.9699 112.407 71.7099V93.3299C112.407 94.1099 112.807 94.7799 113.497 95.1699C113.967 95.4399 114.567 95.5599 115.337 95.5599C116.107 95.5599 116.697 95.4299 117.177 95.1699C117.867 94.7799 118.267 94.1099 118.267 93.3299V73.3099C118.267 71.3299 119.417 69.7999 122.647 69.7999C125.877 69.7999 127.067 71.2699 127.067 73.3099V93.3299C127.067 94.1099 127.467 94.7799 128.157 95.1699C128.627 95.4399 129.227 95.5699 129.997 95.5699C130.767 95.5699 131.357 95.4399 131.837 95.1799C132.527 94.7899 132.927 94.1199 132.927 93.3399V71.7099C132.927 69.3099 131.977 67.3899 130.167 66.1599H130.147Z" fill="#6085FF"/>
<path d="M122.667 84.4599C124.235 84.4599 125.507 83.1884 125.507 81.6199C125.507 80.0515 124.235 78.7799 122.667 78.7799C121.098 78.7799 119.827 80.0515 119.827 81.6199C119.827 83.1884 121.098 84.4599 122.667 84.4599Z" fill="#6085FF"/>
<path d="M83.2266 93.94C83.2266 94.56 83.4966 96 86.0266 96C88.5566 96 88.8266 94.56 88.8266 93.94V73.77C88.8266 70.71 91.2266 69.09 94.8066 69.09C98.3866 69.09 100.827 71.09 100.827 73.77V78.2C100.827 80.18 99.5666 81.73 95.9966 81.73H93.2166C92.7666 81.73 91.2966 81.92 91.2966 84.31C91.2966 86.7 92.7666 86.89 93.2166 86.89H95.9966C98.6066 86.89 101.247 86.42 103.357 85.1C105.407 83.78 106.437 81.69 106.437 78.9V73.05C106.437 68.12 102.797 64 94.8366 64C83.2266 64 83.2266 71.15 83.2266 76.5V93.94Z" fill="#6085FF"/>
<defs>
<filter id="filter0_ii_13358_5956" x="128" y="-2" width="58" height="50" filterUnits="userSpaceOnUse" color-interpolation-filters="sRGB">
<feFlood flood-opacity="0" result="BackgroundImageFix"/>
<feBlend mode="normal" in="SourceGraphic" in2="BackgroundImageFix" result="shape"/>
<feColorMatrix in="SourceAlpha" type="matrix" values="0 0 0 0 0 0 0 0 0 0 0 0 0 0 0 0 0 0 127 0" result="hardAlpha"/>
<feOffset dx="2" dy="-2"/>
<feGaussianBlur stdDeviation="8"/>
<feComposite in2="hardAlpha" operator="arithmetic" k2="-1" k3="1"/>
<feColorMatrix type="matrix" values="0 0 0 0 0 0 0 0 0 0 0 0 0 0 0 0 0 0 0.2 0"/>
<feBlend mode="normal" in2="shape" result="effect1_innerShadow_13358_5956"/>
<feColorMatrix in="SourceAlpha" type="matrix" values="0 0 0 0 0 0 0 0 0 0 0 0 0 0 0 0 0 0 127 0" result="hardAlpha"/>
<feOffset dx="-10"/>
<feGaussianBlur stdDeviation="4"/>
<feComposite in2="hardAlpha" operator="arithmetic" k2="-1" k3="1"/>
<feColorMatrix type="matrix" values="0 0 0 0 1 0 0 0 0 1 0 0 0 0 1 0 0 0 0.16 0"/>
<feBlend mode="normal" in2="effect1_innerShadow_13358_5956" result="effect2_innerShadow_13358_5956"/>
</filter>
<linearGradient id="paint0_linear_13358_5956" x1="160" y1="0" x2="198.567" y2="27.7682" gradientUnits="userSpaceOnUse">
<stop stop-color="#7897FF"/>
<stop offset="0.677083" stop-color="#24BBED"/>
</linearGradient>
<clipPath id="clip0_13358_5956">
<rect width="48" height="48" fill="white" transform="translate(136)"/>
</clipPath>
</defs>
</svg>
