<svg width="49" height="48" viewBox="0 0 49 48" fill="none" xmlns="http://www.w3.org/2000/svg">
<path d="M46.947 29.105L43.358 27.311L41.47 19.757C41.359 19.312 40.959 19 40.5 19H30.5C29.948 19 29.5 19.448 29.5 20V36H1.5V37C1.5 38.105 2.395 39 3.5 39H46.5C47.052 39 47.5 38.552 47.5 38V30C47.5 29.621 47.286 29.275 46.947 29.105Z" fill="#9DB3FD"/>
<path d="M41.469 28L39.719 21H33.5V28H41.469Z" fill="#EFF3FF"/>
<path d="M1.5 13V36H31.5V13C31.5 11.895 30.605 11 29.5 11H3.5C2.395 11 1.5 11.895 1.5 13Z" fill="#BFCEFE"/>
<path d="M37.5 46C34.191 46 31.5 43.309 31.5 40C31.5 36.691 34.191 34 37.5 34C40.809 34 43.5 36.691 43.5 40C43.5 43.309 40.809 46 37.5 46Z" fill="#6085FF"/>
<path d="M37.5 43C35.846 43 34.5 41.654 34.5 40C34.5 38.346 35.846 37 37.5 37C39.154 37 40.5 38.346 40.5 40C40.5 41.654 39.154 43 37.5 43Z" fill="#EFF3FF"/>
<path d="M10.5 46C7.191 46 4.5 43.309 4.5 40C4.5 36.691 7.191 34 10.5 34C13.809 34 16.5 36.691 16.5 40C16.5 43.309 13.809 46 10.5 46Z" fill="#6085FF"/>
<path d="M10.5 43C8.846 43 7.5 41.654 7.5 40C7.5 38.346 8.846 37 10.5 37C12.154 37 13.5 38.346 13.5 40C13.5 41.654 12.154 43 10.5 43Z" fill="#EFF3FF"/>
<path d="M47.5 37H46.5C45.948 37 45.5 36.552 45.5 36V34C45.5 33.448 45.948 33 46.5 33H47.5V37Z" fill="#D8E1FE"/>
<path d="M18.5 17C22.366 17 25.5 13.866 25.5 10C25.5 6.13401 22.366 3 18.5 3C14.634 3 11.5 6.13401 11.5 10C11.5 13.866 14.634 17 18.5 17Z" fill="white"/>
<path d="M7.50001 22C7.24401 22 6.98801 21.902 6.79301 21.707C6.40201 21.316 6.40201 20.684 6.79301 20.293L12.793 14.293C13.184 13.902 13.816 13.902 14.207 14.293C14.598 14.684 14.598 15.316 14.207 15.707L8.20701 21.707C8.01201 21.902 7.75601 22 7.50001 22Z" fill="#6085FF"/>
<path d="M18.5 18C14.089 18 10.5 14.411 10.5 10C10.5 5.589 14.089 2 18.5 2C22.911 2 26.5 5.589 26.5 10C26.5 14.411 22.911 18 18.5 18ZM18.5 4C15.191 4 12.5 6.691 12.5 10C12.5 13.309 15.191 16 18.5 16C21.809 16 24.5 13.309 24.5 10C24.5 6.691 21.809 4 18.5 4Z" fill="#6085FF"/>
</svg>
