<svg width="49" height="48" viewBox="0 0 49 48" fill="none" xmlns="http://www.w3.org/2000/svg">
<path d="M45.5 3H3.5C2.39543 3 1.5 3.89543 1.5 5V43C1.5 44.1046 2.39543 45 3.5 45H45.5C46.6046 45 47.5 44.1046 47.5 43V5C47.5 3.89543 46.6046 3 45.5 3Z" fill="#EFF3FF"/>
<path d="M44.9194 15L41.1172 21.6543L36.0679 18.9126L35.1138 20.6704L41.8828 24.3457L46.0806 17H47.5V15H44.9194Z" fill="#9DB3FD"/>
<path d="M24.355 24.6411L20.1416 21.481L16.4614 28.8408L10.5205 17.9487L6.2812 25.3672L3.9141 23H1.5V25H3.0859L6.7187 28.6328L10.4795 22.0513L16.5386 33.1592L20.8584 24.519L24.645 27.3589L30.0806 21.0908L28.5698 19.7808L24.355 24.6411Z" fill="#9DB3FD"/>
<path d="M36.5 20C36.5 18.1387 35.2222 16.5879 33.5 16.1416V3H31.5V16.1416C29.7778 16.5879 28.5 18.1387 28.5 20C28.5 21.8613 29.7778 23.4121 31.5 23.8584V45H33.5V23.8584C35.2222 23.4121 36.5 21.8613 36.5 20Z" fill="#6085FF"/>
</svg>
