<svg width="32" height="32" viewBox="0 0 32 32" fill="none" xmlns="http://www.w3.org/2000/svg">
<path d="M15.9795 0L14.5732 2.8125L15.9795 5.625C17.533 5.625 18.792 4.36572 18.792 2.8125C18.792 1.25928 17.533 0 15.9795 0Z" fill="#163F69"/>
<path d="M13.167 2.8125C13.167 4.36572 14.4263 5.625 15.9795 5.625V0C14.4263 0 13.167 1.25928 13.167 2.8125Z" fill="#085AAE"/>
<path d="M11.0405 5.33105C11.0405 6.88428 9.78149 8.14355 8.22803 8.14355C6.6748 8.14355 5.41553 6.88428 5.41553 5.33105C5.41553 3.77783 6.6748 2.51855 8.22803 2.51855C9.78149 2.51855 11.0405 3.77783 11.0405 5.33105Z" fill="#0A77E8"/>
<path d="M6.25 11.9248C6.25 13.478 4.99072 14.7373 3.4375 14.7373C1.88428 14.7373 0.625 13.478 0.625 11.9248C0.625 10.3716 1.88428 9.1123 3.4375 9.1123C4.99072 9.1123 6.25 10.3716 6.25 11.9248Z" fill="#0F9AF0"/>
<path d="M6.25 20.0752C6.25 21.6284 4.99072 22.8877 3.4375 22.8877C1.88428 22.8877 0.625 21.6284 0.625 20.0752C0.625 18.522 1.88428 17.2627 3.4375 17.2627C4.99072 17.2627 6.25 18.522 6.25 20.0752Z" fill="#0F9AF0"/>
<path d="M11.0405 26.6689C11.0405 28.2222 9.78149 29.4814 8.22803 29.4814C6.6748 29.4814 5.41553 28.2222 5.41553 26.6689C5.41553 25.1157 6.6748 23.8564 8.22803 23.8564C9.78149 23.8564 11.0405 25.1157 11.0405 26.6689Z" fill="#13BDF7"/>
<path d="M15.9795 26.375L14.5732 29.1875L15.9795 32C17.533 32 18.792 30.7407 18.792 29.1875C18.792 27.6343 17.533 26.375 15.9795 26.375Z" fill="#13BDF7"/>
<path d="M13.167 29.1875C13.167 30.7407 14.4263 32 15.9795 32V26.375C14.4263 26.375 13.167 27.6343 13.167 29.1875Z" fill="#18E0FF"/>
<path d="M26.5435 26.6689C26.5435 28.2222 25.2842 29.4814 23.731 29.4814C22.1777 29.4814 20.9185 28.2222 20.9185 26.6689C20.9185 25.1157 22.1777 23.8564 23.731 23.8564C25.2842 23.8564 26.5435 25.1157 26.5435 26.6689Z" fill="#18E0FF"/>
<path d="M31.334 20.0752C31.334 21.6284 30.0747 22.8877 28.5215 22.8877C26.968 22.8877 25.709 21.6284 25.709 20.0752C25.709 18.522 26.968 17.2627 28.5215 17.2627C30.0747 17.2627 31.334 18.522 31.334 20.0752Z" fill="#65EAFF"/>
<path d="M31.334 11.9248C31.334 13.478 30.0747 14.7373 28.5215 14.7373C26.968 14.7373 25.709 13.478 25.709 11.9248C25.709 10.3716 26.968 9.1123 28.5215 9.1123C30.0747 9.1123 31.334 10.3716 31.334 11.9248Z" fill="#B2F5FF"/>
</svg>
